<svg xmlns="http://www.w3.org/2000/svg" version="1.1" xmlns:xlink="http://www.w3.org/1999/xlink" role="img" viewBox="0 0 48 48">
    <path
        d="M14.3773 45.9356C22.3176 45.9356 28.7545 39.4987 28.7545 31.5584C28.7545 23.6181 22.3176 17.1812 14.3773 17.1812C6.43691 17.1812 0 23.6181 0 31.5584C0 39.4987 6.43691 45.9356 14.3773 45.9356Z"
        fill="#04E061"></path>
    <path
        d="M39.3135 44.1236C44.1109 44.1236 48 40.2345 48 35.437C48 30.6396 44.1109 26.7505 39.3135 26.7505C34.5161 26.7505 30.627 30.6396 30.627 35.437C30.627 40.2345 34.5161 44.1236 39.3135 44.1236Z"
        fill="#FF4053"></path>
    <path
        d="M17.1257 15.3153C20.095 15.3153 22.5021 12.9082 22.5021 9.93892C22.5021 6.96961 20.095 4.5625 17.1257 4.5625C14.1564 4.5625 11.7493 6.96961 11.7493 9.93892C11.7493 12.9082 14.1564 15.3153 17.1257 15.3153Z"
        fill="#965EEB"></path>
    <path
        d="M35.9365 24.8781C42.3922 24.8781 47.6255 19.6447 47.6255 13.189C47.6255 6.73336 42.3922 1.5 35.9365 1.5C29.4808 1.5 24.2474 6.73336 24.2474 13.189C24.2474 19.6447 29.4808 24.8781 35.9365 24.8781Z"
        fill="#00AAFF"></path>
</svg>